<svg width="320" height="320" viewBox="90 50 320 320" xmlns="http://www.w3.org/2000/svg">

  <!-- Outer eye shape -->
  <path d="M100 210 Q175 110 250 110 Q325 110 400 210 Q325 310 250 310 Q175 310 100 210 Z" fill="none" stroke="#c4b5fd" stroke-width="6"/>

  <!-- Iris -->
  <circle cx="250" cy="210" r="62" fill="none" stroke="#c4b5fd" stroke-width="5"/>
  <circle cx="250" cy="210" r="42" fill="transparent"/>

  <!-- Pupil -->
  <circle cx="250" cy="210" r="22" fill="#c4b5fd" opacity="0.25"/>
  <circle cx="250" cy="210" r="10" fill="#c4b5fd"/>

  <!-- Iris detail lines -->
  <line x1="250" y1="168" x2="250" y2="180" stroke="#c4b5fd" stroke-width="3.5" opacity="0.9"/>
  <line x1="250" y1="240" x2="250" y2="252" stroke="#c4b5fd" stroke-width="3.5" opacity="0.9"/>
  <line x1="208" y1="210" x2="220" y2="210" stroke="#c4b5fd" stroke-width="3.5" opacity="0.9"/>
  <line x1="280" y1="210" x2="292" y2="210" stroke="#c4b5fd" stroke-width="3.5" opacity="0.9"/>
  <line x1="220" y1="180" x2="228" y2="188" stroke="#c4b5fd" stroke-width="3" opacity="0.85"/>
  <line x1="272" y1="232" x2="280" y2="240" stroke="#c4b5fd" stroke-width="3" opacity="0.85"/>
  <line x1="280" y1="180" x2="272" y2="188" stroke="#c4b5fd" stroke-width="3" opacity="0.85"/>
  <line x1="228" y1="232" x2="220" y2="240" stroke="#c4b5fd" stroke-width="3" opacity="0.85"/>

  <!-- Eyelash lines top -->
  <line x1="175" y1="148" x2="185" y2="162" stroke="#c4b5fd" stroke-width="3" opacity="0.85"/>
  <line x1="215" y1="122" x2="220" y2="138" stroke="#c4b5fd" stroke-width="3" opacity="0.85"/>
  <line x1="250" y1="110" x2="250" y2="128" stroke="#c4b5fd" stroke-width="3" opacity="0.85"/>
  <line x1="285" y1="122" x2="280" y2="138" stroke="#c4b5fd" stroke-width="3" opacity="0.85"/>
  <line x1="325" y1="148" x2="315" y2="162" stroke="#c4b5fd" stroke-width="3" opacity="0.85"/>

</svg>
